<mxfile host="app.diagrams.net" modified="2024-07-23T09:34:26.559Z" agent="Mozilla/5.0 (Macintosh; Intel Mac OS X 10_15_7) AppleWebKit/537.36 (KHTML, like Gecko) Chrome/126.0.0.0 Safari/537.36" etag="q_5ji2mtwTBFCy1homp7" version="24.7.3" type="github">
  <diagram id="C5RBs43oDa-KdzZeNtuy" name="Page-1">
    <mxGraphModel dx="2261" dy="786" grid="1" gridSize="10" guides="1" tooltips="1" connect="1" arrows="1" fold="1" page="1" pageScale="1" pageWidth="827" pageHeight="1169" math="0" shadow="0">
      <root>
        <mxCell id="WIyWlLk6GJQsqaUBKTNV-0" />
        <mxCell id="WIyWlLk6GJQsqaUBKTNV-1" parent="WIyWlLk6GJQsqaUBKTNV-0" />
        <mxCell id="7fBHYdW7NXOMwtXrczqz-40" style="edgeStyle=orthogonalEdgeStyle;rounded=0;orthogonalLoop=1;jettySize=auto;html=1;entryX=0.5;entryY=1;entryDx=0;entryDy=0;exitX=0;exitY=0.75;exitDx=0;exitDy=0;" edge="1" parent="WIyWlLk6GJQsqaUBKTNV-1" source="7fBHYdW7NXOMwtXrczqz-2" target="7fBHYdW7NXOMwtXrczqz-11">
          <mxGeometry relative="1" as="geometry" />
        </mxCell>
        <mxCell id="WIyWlLk6GJQsqaUBKTNV-2" value="" style="rounded=0;html=1;jettySize=auto;orthogonalLoop=1;fontSize=11;endArrow=block;endFill=0;endSize=8;strokeWidth=1;shadow=0;labelBackgroundColor=none;edgeStyle=orthogonalEdgeStyle;" parent="WIyWlLk6GJQsqaUBKTNV-1" source="WIyWlLk6GJQsqaUBKTNV-3" target="WIyWlLk6GJQsqaUBKTNV-6" edge="1">
          <mxGeometry relative="1" as="geometry" />
        </mxCell>
        <mxCell id="WIyWlLk6GJQsqaUBKTNV-3" value="Lamp doesn&#39;t work" style="rounded=1;whiteSpace=wrap;html=1;fontSize=12;glass=0;strokeWidth=1;shadow=0;" parent="WIyWlLk6GJQsqaUBKTNV-1" vertex="1">
          <mxGeometry x="160" y="80" width="120" height="40" as="geometry" />
        </mxCell>
        <mxCell id="WIyWlLk6GJQsqaUBKTNV-4" value="Yes" style="rounded=0;html=1;jettySize=auto;orthogonalLoop=1;fontSize=11;endArrow=block;endFill=0;endSize=8;strokeWidth=1;shadow=0;labelBackgroundColor=none;edgeStyle=orthogonalEdgeStyle;" parent="WIyWlLk6GJQsqaUBKTNV-1" source="WIyWlLk6GJQsqaUBKTNV-6" target="WIyWlLk6GJQsqaUBKTNV-10" edge="1">
          <mxGeometry y="20" relative="1" as="geometry">
            <mxPoint as="offset" />
          </mxGeometry>
        </mxCell>
        <mxCell id="WIyWlLk6GJQsqaUBKTNV-5" value="No" style="edgeStyle=orthogonalEdgeStyle;rounded=0;html=1;jettySize=auto;orthogonalLoop=1;fontSize=11;endArrow=block;endFill=0;endSize=8;strokeWidth=1;shadow=0;labelBackgroundColor=none;" parent="WIyWlLk6GJQsqaUBKTNV-1" source="WIyWlLk6GJQsqaUBKTNV-6" target="WIyWlLk6GJQsqaUBKTNV-7" edge="1">
          <mxGeometry y="10" relative="1" as="geometry">
            <mxPoint as="offset" />
          </mxGeometry>
        </mxCell>
        <mxCell id="WIyWlLk6GJQsqaUBKTNV-6" value="Lamp&lt;br&gt;plugged in?" style="rhombus;whiteSpace=wrap;html=1;shadow=0;fontFamily=Helvetica;fontSize=12;align=center;strokeWidth=1;spacing=6;spacingTop=-4;" parent="WIyWlLk6GJQsqaUBKTNV-1" vertex="1">
          <mxGeometry x="170" y="170" width="100" height="80" as="geometry" />
        </mxCell>
        <mxCell id="WIyWlLk6GJQsqaUBKTNV-7" value="Plug in lamp" style="rounded=1;whiteSpace=wrap;html=1;fontSize=12;glass=0;strokeWidth=1;shadow=0;" parent="WIyWlLk6GJQsqaUBKTNV-1" vertex="1">
          <mxGeometry x="320" y="190" width="120" height="40" as="geometry" />
        </mxCell>
        <mxCell id="WIyWlLk6GJQsqaUBKTNV-8" value="No" style="rounded=0;html=1;jettySize=auto;orthogonalLoop=1;fontSize=11;endArrow=block;endFill=0;endSize=8;strokeWidth=1;shadow=0;labelBackgroundColor=none;edgeStyle=orthogonalEdgeStyle;" parent="WIyWlLk6GJQsqaUBKTNV-1" source="WIyWlLk6GJQsqaUBKTNV-10" target="WIyWlLk6GJQsqaUBKTNV-11" edge="1">
          <mxGeometry x="0.3333" y="20" relative="1" as="geometry">
            <mxPoint as="offset" />
          </mxGeometry>
        </mxCell>
        <mxCell id="WIyWlLk6GJQsqaUBKTNV-9" value="Yes" style="edgeStyle=orthogonalEdgeStyle;rounded=0;html=1;jettySize=auto;orthogonalLoop=1;fontSize=11;endArrow=block;endFill=0;endSize=8;strokeWidth=1;shadow=0;labelBackgroundColor=none;" parent="WIyWlLk6GJQsqaUBKTNV-1" source="WIyWlLk6GJQsqaUBKTNV-10" target="WIyWlLk6GJQsqaUBKTNV-12" edge="1">
          <mxGeometry y="10" relative="1" as="geometry">
            <mxPoint as="offset" />
          </mxGeometry>
        </mxCell>
        <mxCell id="WIyWlLk6GJQsqaUBKTNV-10" value="Bulb&lt;br&gt;burned out?" style="rhombus;whiteSpace=wrap;html=1;shadow=0;fontFamily=Helvetica;fontSize=12;align=center;strokeWidth=1;spacing=6;spacingTop=-4;" parent="WIyWlLk6GJQsqaUBKTNV-1" vertex="1">
          <mxGeometry x="170" y="290" width="100" height="80" as="geometry" />
        </mxCell>
        <mxCell id="WIyWlLk6GJQsqaUBKTNV-11" value="Repair Lamp" style="rounded=1;whiteSpace=wrap;html=1;fontSize=12;glass=0;strokeWidth=1;shadow=0;" parent="WIyWlLk6GJQsqaUBKTNV-1" vertex="1">
          <mxGeometry x="160" y="430" width="120" height="40" as="geometry" />
        </mxCell>
        <mxCell id="WIyWlLk6GJQsqaUBKTNV-12" value="Replace Bulb" style="rounded=1;whiteSpace=wrap;html=1;fontSize=12;glass=0;strokeWidth=1;shadow=0;" parent="WIyWlLk6GJQsqaUBKTNV-1" vertex="1">
          <mxGeometry x="320" y="310" width="120" height="40" as="geometry" />
        </mxCell>
        <mxCell id="7fBHYdW7NXOMwtXrczqz-14" style="edgeStyle=orthogonalEdgeStyle;rounded=0;orthogonalLoop=1;jettySize=auto;html=1;entryX=0.5;entryY=0;entryDx=0;entryDy=0;" edge="1" parent="WIyWlLk6GJQsqaUBKTNV-1" source="7fBHYdW7NXOMwtXrczqz-0" target="7fBHYdW7NXOMwtXrczqz-1">
          <mxGeometry relative="1" as="geometry" />
        </mxCell>
        <mxCell id="7fBHYdW7NXOMwtXrczqz-15" value="檢驗單" style="edgeLabel;html=1;align=center;verticalAlign=middle;resizable=0;points=[];" vertex="1" connectable="0" parent="7fBHYdW7NXOMwtXrczqz-14">
          <mxGeometry x="-0.025" y="1" relative="1" as="geometry">
            <mxPoint as="offset" />
          </mxGeometry>
        </mxCell>
        <mxCell id="7fBHYdW7NXOMwtXrczqz-41" style="edgeStyle=orthogonalEdgeStyle;rounded=0;orthogonalLoop=1;jettySize=auto;html=1;" edge="1" parent="WIyWlLk6GJQsqaUBKTNV-1" source="7fBHYdW7NXOMwtXrczqz-0" target="7fBHYdW7NXOMwtXrczqz-11">
          <mxGeometry relative="1" as="geometry" />
        </mxCell>
        <mxCell id="7fBHYdW7NXOMwtXrczqz-42" value="報告查詢" style="edgeLabel;html=1;align=center;verticalAlign=middle;resizable=0;points=[];" vertex="1" connectable="0" parent="7fBHYdW7NXOMwtXrczqz-41">
          <mxGeometry x="0.0218" y="3" relative="1" as="geometry">
            <mxPoint as="offset" />
          </mxGeometry>
        </mxCell>
        <mxCell id="7fBHYdW7NXOMwtXrczqz-0" value="HIS系統（門急住）" style="rounded=1;whiteSpace=wrap;html=1;fontSize=12;glass=0;strokeWidth=1;shadow=0;" vertex="1" parent="WIyWlLk6GJQsqaUBKTNV-1">
          <mxGeometry x="320" y="545" width="120" height="45" as="geometry" />
        </mxCell>
        <mxCell id="7fBHYdW7NXOMwtXrczqz-17" style="edgeStyle=orthogonalEdgeStyle;rounded=0;orthogonalLoop=1;jettySize=auto;html=1;entryX=0.5;entryY=0;entryDx=0;entryDy=0;" edge="1" parent="WIyWlLk6GJQsqaUBKTNV-1" source="7fBHYdW7NXOMwtXrczqz-1" target="7fBHYdW7NXOMwtXrczqz-5">
          <mxGeometry relative="1" as="geometry" />
        </mxCell>
        <mxCell id="7fBHYdW7NXOMwtXrczqz-36" style="edgeStyle=orthogonalEdgeStyle;rounded=0;orthogonalLoop=1;jettySize=auto;html=1;exitX=0;exitY=0.5;exitDx=0;exitDy=0;entryX=0.5;entryY=0;entryDx=0;entryDy=0;" edge="1" parent="WIyWlLk6GJQsqaUBKTNV-1" source="7fBHYdW7NXOMwtXrczqz-1" target="7fBHYdW7NXOMwtXrczqz-3">
          <mxGeometry relative="1" as="geometry" />
        </mxCell>
        <mxCell id="7fBHYdW7NXOMwtXrczqz-37" value="醫令下傳" style="edgeLabel;html=1;align=center;verticalAlign=middle;resizable=0;points=[];" vertex="1" connectable="0" parent="7fBHYdW7NXOMwtXrczqz-36">
          <mxGeometry x="-0.107" y="1" relative="1" as="geometry">
            <mxPoint as="offset" />
          </mxGeometry>
        </mxCell>
        <mxCell id="7fBHYdW7NXOMwtXrczqz-1" value="採檢單位（系統）" style="rounded=1;whiteSpace=wrap;html=1;fontSize=12;glass=0;strokeWidth=1;shadow=0;" vertex="1" parent="WIyWlLk6GJQsqaUBKTNV-1">
          <mxGeometry x="320" y="670" width="120" height="40" as="geometry" />
        </mxCell>
        <mxCell id="7fBHYdW7NXOMwtXrczqz-38" style="edgeStyle=orthogonalEdgeStyle;rounded=0;orthogonalLoop=1;jettySize=auto;html=1;entryX=-0.004;entryY=0.37;entryDx=0;entryDy=0;entryPerimeter=0;exitX=0.5;exitY=1;exitDx=0;exitDy=0;" edge="1" parent="WIyWlLk6GJQsqaUBKTNV-1" source="7fBHYdW7NXOMwtXrczqz-3" target="7fBHYdW7NXOMwtXrczqz-2">
          <mxGeometry relative="1" as="geometry" />
        </mxCell>
        <mxCell id="7fBHYdW7NXOMwtXrczqz-39" value="數值回傳" style="edgeLabel;html=1;align=center;verticalAlign=middle;resizable=0;points=[];" vertex="1" connectable="0" parent="7fBHYdW7NXOMwtXrczqz-38">
          <mxGeometry x="-0.0674" y="-3" relative="1" as="geometry">
            <mxPoint as="offset" />
          </mxGeometry>
        </mxCell>
        <mxCell id="7fBHYdW7NXOMwtXrczqz-3" value="檢驗儀器" style="rounded=1;whiteSpace=wrap;html=1;fontSize=12;glass=0;strokeWidth=1;shadow=0;" vertex="1" parent="WIyWlLk6GJQsqaUBKTNV-1">
          <mxGeometry x="-70" y="860" width="120" height="40" as="geometry" />
        </mxCell>
        <mxCell id="7fBHYdW7NXOMwtXrczqz-29" style="edgeStyle=orthogonalEdgeStyle;rounded=0;orthogonalLoop=1;jettySize=auto;html=1;entryX=0.5;entryY=1;entryDx=0;entryDy=0;" edge="1" parent="WIyWlLk6GJQsqaUBKTNV-1" source="7fBHYdW7NXOMwtXrczqz-8" target="7fBHYdW7NXOMwtXrczqz-10">
          <mxGeometry relative="1" as="geometry" />
        </mxCell>
        <mxCell id="7fBHYdW7NXOMwtXrczqz-30" value="是" style="edgeStyle=orthogonalEdgeStyle;rounded=0;orthogonalLoop=1;jettySize=auto;html=1;exitX=0.5;exitY=0;exitDx=0;exitDy=0;entryX=0.5;entryY=1;entryDx=0;entryDy=0;" edge="1" parent="WIyWlLk6GJQsqaUBKTNV-1" source="7fBHYdW7NXOMwtXrczqz-10" target="7fBHYdW7NXOMwtXrczqz-32">
          <mxGeometry relative="1" as="geometry" />
        </mxCell>
        <mxCell id="7fBHYdW7NXOMwtXrczqz-35" style="edgeStyle=orthogonalEdgeStyle;rounded=0;orthogonalLoop=1;jettySize=auto;html=1;entryX=0;entryY=0.5;entryDx=0;entryDy=0;" edge="1" parent="WIyWlLk6GJQsqaUBKTNV-1" source="7fBHYdW7NXOMwtXrczqz-10" target="7fBHYdW7NXOMwtXrczqz-34">
          <mxGeometry relative="1" as="geometry" />
        </mxCell>
        <mxCell id="7fBHYdW7NXOMwtXrczqz-10" value="結果是否異常" style="rhombus;whiteSpace=wrap;html=1;" vertex="1" parent="WIyWlLk6GJQsqaUBKTNV-1">
          <mxGeometry x="670" y="880" width="80" height="80" as="geometry" />
        </mxCell>
        <mxCell id="7fBHYdW7NXOMwtXrczqz-11" value="檢驗報告查詢" style="rounded=1;whiteSpace=wrap;html=1;fontSize=12;glass=0;strokeWidth=1;shadow=0;" vertex="1" parent="WIyWlLk6GJQsqaUBKTNV-1">
          <mxGeometry x="-230" y="880" width="120" height="40" as="geometry" />
        </mxCell>
        <mxCell id="7fBHYdW7NXOMwtXrczqz-33" style="edgeStyle=orthogonalEdgeStyle;rounded=0;orthogonalLoop=1;jettySize=auto;html=1;entryX=1;entryY=0.5;entryDx=0;entryDy=0;exitX=0.5;exitY=0;exitDx=0;exitDy=0;" edge="1" parent="WIyWlLk6GJQsqaUBKTNV-1" source="7fBHYdW7NXOMwtXrczqz-32" target="7fBHYdW7NXOMwtXrczqz-0">
          <mxGeometry relative="1" as="geometry" />
        </mxCell>
        <mxCell id="7fBHYdW7NXOMwtXrczqz-32" value="通報系統" style="rounded=1;whiteSpace=wrap;html=1;fontSize=12;glass=0;strokeWidth=1;shadow=0;" vertex="1" parent="WIyWlLk6GJQsqaUBKTNV-1">
          <mxGeometry x="650" y="640" width="120" height="40" as="geometry" />
        </mxCell>
        <mxCell id="7fBHYdW7NXOMwtXrczqz-34" value="END" style="ellipse;whiteSpace=wrap;html=1;" vertex="1" parent="WIyWlLk6GJQsqaUBKTNV-1">
          <mxGeometry x="820" y="880" width="120" height="80" as="geometry" />
        </mxCell>
        <mxCell id="7fBHYdW7NXOMwtXrczqz-45" value="" style="group" vertex="1" connectable="0" parent="WIyWlLk6GJQsqaUBKTNV-1">
          <mxGeometry x="120" y="770" width="540" height="505" as="geometry" />
        </mxCell>
        <mxCell id="7fBHYdW7NXOMwtXrczqz-2" value="" style="rounded=1;whiteSpace=wrap;html=1;fontSize=12;glass=0;strokeWidth=1;shadow=0;" vertex="1" parent="7fBHYdW7NXOMwtXrczqz-45">
          <mxGeometry width="540" height="505" as="geometry" />
        </mxCell>
        <mxCell id="7fBHYdW7NXOMwtXrczqz-24" style="edgeStyle=orthogonalEdgeStyle;rounded=0;orthogonalLoop=1;jettySize=auto;html=1;" edge="1" parent="7fBHYdW7NXOMwtXrczqz-45" source="7fBHYdW7NXOMwtXrczqz-5" target="7fBHYdW7NXOMwtXrczqz-16">
          <mxGeometry relative="1" as="geometry" />
        </mxCell>
        <mxCell id="7fBHYdW7NXOMwtXrczqz-5" value="檢驗簽收" style="rounded=0;whiteSpace=wrap;html=1;" vertex="1" parent="7fBHYdW7NXOMwtXrczqz-45">
          <mxGeometry x="200" y="25" width="120" height="60" as="geometry" />
        </mxCell>
        <mxCell id="7fBHYdW7NXOMwtXrczqz-8" value="報告輸入" style="rounded=0;whiteSpace=wrap;html=1;" vertex="1" parent="7fBHYdW7NXOMwtXrczqz-45">
          <mxGeometry x="200" y="405" width="120" height="60" as="geometry" />
        </mxCell>
        <mxCell id="7fBHYdW7NXOMwtXrczqz-22" style="edgeStyle=orthogonalEdgeStyle;rounded=0;orthogonalLoop=1;jettySize=auto;html=1;" edge="1" parent="7fBHYdW7NXOMwtXrczqz-45" source="7fBHYdW7NXOMwtXrczqz-16" target="7fBHYdW7NXOMwtXrczqz-19">
          <mxGeometry relative="1" as="geometry" />
        </mxCell>
        <mxCell id="7fBHYdW7NXOMwtXrczqz-23" value="是" style="edgeLabel;html=1;align=center;verticalAlign=middle;resizable=0;points=[];" vertex="1" connectable="0" parent="7fBHYdW7NXOMwtXrczqz-22">
          <mxGeometry x="-0.05" y="-1" relative="1" as="geometry">
            <mxPoint x="35" y="1" as="offset" />
          </mxGeometry>
        </mxCell>
        <mxCell id="7fBHYdW7NXOMwtXrczqz-27" style="edgeStyle=orthogonalEdgeStyle;rounded=0;orthogonalLoop=1;jettySize=auto;html=1;" edge="1" parent="7fBHYdW7NXOMwtXrczqz-45" source="7fBHYdW7NXOMwtXrczqz-16" target="7fBHYdW7NXOMwtXrczqz-18">
          <mxGeometry relative="1" as="geometry" />
        </mxCell>
        <mxCell id="7fBHYdW7NXOMwtXrczqz-28" value="否" style="edgeLabel;html=1;align=center;verticalAlign=middle;resizable=0;points=[];" vertex="1" connectable="0" parent="7fBHYdW7NXOMwtXrczqz-27">
          <mxGeometry x="0.3051" y="1" relative="1" as="geometry">
            <mxPoint x="-71" y="-14" as="offset" />
          </mxGeometry>
        </mxCell>
        <mxCell id="7fBHYdW7NXOMwtXrczqz-16" value="是否特殊檢驗" style="rhombus;whiteSpace=wrap;html=1;" vertex="1" parent="7fBHYdW7NXOMwtXrczqz-45">
          <mxGeometry x="220" y="135" width="80" height="80" as="geometry" />
        </mxCell>
        <mxCell id="7fBHYdW7NXOMwtXrczqz-26" style="edgeStyle=orthogonalEdgeStyle;rounded=0;orthogonalLoop=1;jettySize=auto;html=1;entryX=0.5;entryY=0;entryDx=0;entryDy=0;" edge="1" parent="7fBHYdW7NXOMwtXrczqz-45" source="7fBHYdW7NXOMwtXrczqz-18" target="7fBHYdW7NXOMwtXrczqz-8">
          <mxGeometry relative="1" as="geometry" />
        </mxCell>
        <mxCell id="7fBHYdW7NXOMwtXrczqz-18" value="一般檢驗室" style="rounded=1;whiteSpace=wrap;html=1;fontSize=12;glass=0;strokeWidth=1;shadow=0;" vertex="1" parent="7fBHYdW7NXOMwtXrczqz-45">
          <mxGeometry x="370" y="265" width="120" height="45" as="geometry" />
        </mxCell>
        <mxCell id="7fBHYdW7NXOMwtXrczqz-25" style="edgeStyle=orthogonalEdgeStyle;rounded=0;orthogonalLoop=1;jettySize=auto;html=1;" edge="1" parent="7fBHYdW7NXOMwtXrczqz-45" source="7fBHYdW7NXOMwtXrczqz-19" target="7fBHYdW7NXOMwtXrczqz-8">
          <mxGeometry relative="1" as="geometry" />
        </mxCell>
        <mxCell id="7fBHYdW7NXOMwtXrczqz-19" value="特殊檢驗科室" style="rounded=1;whiteSpace=wrap;html=1;fontSize=12;glass=0;strokeWidth=1;shadow=0;" vertex="1" parent="7fBHYdW7NXOMwtXrczqz-45">
          <mxGeometry x="30" y="265" width="120" height="45" as="geometry" />
        </mxCell>
        <mxCell id="7fBHYdW7NXOMwtXrczqz-44" value="檢驗資訊系統" style="text;strokeColor=none;fillColor=none;align=left;verticalAlign=middle;spacingLeft=4;spacingRight=4;overflow=hidden;points=[[0,0.5],[1,0.5]];portConstraint=eastwest;rotatable=0;whiteSpace=wrap;html=1;" vertex="1" parent="7fBHYdW7NXOMwtXrczqz-45">
          <mxGeometry x="60" y="5" width="90" height="30" as="geometry" />
        </mxCell>
      </root>
    </mxGraphModel>
  </diagram>
</mxfile>
